<svg width="556" height="424" viewBox="0 0 556 424" fill="none" xmlns="http://www.w3.org/2000/svg">
<g clip-path="url(#clip0_3_281)">
<path d="M358.812 31.1874C363.899 33.6942 368.731 36.5037 373.125 40.1249C379.603 44.5009 387.209 43.2969 394.693 43.0942C421.392 42.4594 446.889 51.1716 469.931 64.082C499.417 80.7498 524.275 104.523 533.875 137.812C535.442 145.339 535.288 153.067 535.33 160.716C535.269 167.289 530.282 178.867 534.467 184.333C545.73 196.033 562.023 222.393 553.438 240.25C536.405 252.478 531.218 207.479 520 200C516.255 203.399 512.692 206.908 508 209C509.539 213.092 511.471 216.88 513.5 220.75C518.407 230.451 520.613 240.027 519 251C515.755 255.384 510.086 257.29 505.355 253.779C503.7 251.606 503.11 249.73 502.387 247.098C499.483 236.906 491 224.871 491 215C484.289 215.061 476.451 216.15 470 214C468.478 236.514 477.066 252.917 491.215 270.148C493.342 273.546 493.852 276.011 494 280C477.448 309.366 449.424 238.772 448.152 227.531C447.801 221.698 447.932 215.841 448 210C434.335 206.434 420.302 204.334 406.51 201.307C401.253 200.127 401.253 200.127 399 199C400.401 213.007 379.799 231.668 385 243C406.028 258.882 435.33 266.106 442.47 293.944C444.246 301.903 445.87 309.897 447.602 317.867C449.617 327.198 456.235 342.647 450 352C451.986 377.436 499.978 384.124 496 407C493.527 409.91 492.032 410.871 488.242 411.344C483.671 410.859 480.089 408.231 476.391 405.755C458.254 393.453 444.616 378.739 434.737 359.112C433.323 356.325 431.975 353.971 429.895 351.625C418.009 335.156 431.065 302.976 415.909 289.083C402.576 279.364 384.847 273.847 373 262C372.023 284.385 374.982 313.395 363 333C359.921 338.371 356.735 343.677 353.566 348.996C343.815 365.208 343.815 365.208 340.02 366.864C337.106 368.503 336.364 370.563 334.898 373.539C328.297 386.683 322.511 402.489 312 413C307.083 413.564 305.082 413.766 301 410.875C294.534 401.581 308.988 387.49 313.418 378.949C317.229 371.844 324.413 363.835 323.98 355.488C323.736 350.34 325.553 347.446 328.438 343.312C332.648 336.932 336.872 330.56 341.09 324.184C345.952 316.08 346.419 310.41 346.25 301C346.117 287.048 345.553 273.137 344.793 259.207C342.715 250.802 332.624 245.175 328 238C320.422 255.46 310.208 272.657 291.844 280.316C280.866 284.073 270.692 285.461 259 286C258.348 294.214 257.022 302.315 255.489 310.409C252.939 323.928 251.591 337.244 244 349C239.461 356.13 234.707 363.111 229.879 370.047C224.848 376.904 217.335 380.342 211.437 386.562C203.436 394.765 194.573 401.644 185.367 408.391C116.862 458.382 204.635 367.866 205.277 363.504C208.841 351.156 223.414 344.584 226.023 331.875C229.193 316.557 230.043 299.869 235 285C211.985 290.578 185.924 293.435 165 280C164.139 285.323 161.567 289.707 158.937 294.312C153.4 304.166 148.201 314.238 143.363 324.457C138.576 333.525 18.1417 420.023 11 407C10.3152 403.633 10.0725 402.18 11 399C16.425 391.578 26.2926 386.563 33.8437 381.484C47.2517 372.461 60.292 362.918 73.9309 354.237C79.5267 350.535 81.6877 348.216 84 342C91.8403 334.516 101.509 328.97 110.707 323.344C121.08 316.5 125.236 305.253 130.294 294.499C135.174 284.488 140.802 274.297 147 265C107.747 265.904 69.862 260.182 35.0156 241.391C17.9484 231.426 6.99126 215.893 1.99999 197C-3.63779 165.112 9.94544 131.419 27.9521 105.635C34.2626 96.8744 41.5628 89.0543 48.5625 80.8749C86.5001 37.5549 145.312 11.694 201.219 2.64055C255.385 -5.70978 310.312 7.23914 358.812 31.1874Z" fill="#000"/>
<path d="M431.762 72.1065C462.01 82.3338 490.387 99.5202 506.164 128.109C513.583 142.268 516.487 156.496 512.023 172.18C508.629 181.532 502.79 186.538 494 191C482.173 195.153 467.567 191.02 455.8 188.56C442.572 185.914 429.258 183.906 416.088 180.926C401.606 177.447 388.888 169.701 380.25 157.375C367.045 134.789 366.872 86.7163 383.57 68.1406C394.459 58.547 419.503 68.1179 431.762 72.1065Z" fill="#D900FF"/>
<path d="M198.695 27.9687C201.02 31.5881 202.269 35.7349 203.656 39.7719C216.01 76.5197 218.081 115.469 211.562 153.559C207.748 174.977 199.298 194.388 191.652 214.555C188.219 222.525 182.465 224.724 174.938 228.09C169.052 230.79 164.209 234.891 160.457 240.172C155.279 246.669 131.341 243.04 124 243C124 238.221 126.113 234.935 128.438 231C158.176 178.844 168.655 105.716 144.137 48.7734C143 46 143 46 143 44C153.988 39.0184 185.927 20.6728 198.695 27.9687Z" fill="#91FF00"/>
<path d="M220 25C245.053 24.2452 270.379 26.1205 295 31C291.045 72.6954 286.659 113.544 292.353 155.486C294.005 168.459 294.005 168.459 291.823 171.805C283.67 180.837 274.935 186.96 269.27 198.535C264.884 207.277 264.884 207.277 259.316 209.414C253.477 210.667 247.476 210.754 241.574 211.594C235.8 212.402 219.471 216.471 215 212C215.456 205.663 217.591 200.021 219.688 194.063C234.573 150.316 239.781 103.709 229.4 58.3819C226.93 47.8332 220 35.7933 220 25Z" fill="#D900FF"/>
<path d="M126 53C148.508 114.973 139.2 185.848 101 240C86.4584 237.942 73.2805 234.139 60 228C60 223.012 62.3437 219.365 64.6875 215.188C79.3418 188.062 83.9737 154.889 75.1211 125.036C72.8721 117.829 63.7807 104.256 65.4648 96.9961C76.0462 83.2376 107.361 53 126 53Z" fill="#D900FF"/>
<path d="M313 38C330.386 41.2868 347.805 50.4528 363 59C351.692 93.6803 349.429 124.894 357 161C344.529 167.024 333.814 175.09 322 182C303.505 175.835 308.642 115.416 308.688 100.062C308.697 79.1566 307.485 58.316 313 38Z" fill="#91FF00"/>
<path d="M49 116C73.803 138.875 57.0365 195.284 41 216C7.88237 190.168 30.0402 142.769 49 116Z" fill="#91FF00"/>
<path d="M301 193C304.693 195.667 308.246 198.508 312.062 201C320.793 214.518 306.549 238.262 298.621 248.84C289.042 259.869 274.186 264.516 260 264C267.575 242.898 279.473 203.764 301 193Z" fill="#FFFF00"/>
<path d="M373 182C376.721 185.574 378.425 190.119 378.875 195.187C378.142 211.359 366.591 228.134 359 242C346.266 242 330.902 206.695 340.5 194.937C347.579 189.755 364.28 178.884 373 182Z" fill="#FFFF00"/>
<path d="M470.414 117.914C475.783 121.031 479.022 125.066 481 131C481.398 136.878 481.04 141.837 478 147C473.668 151.834 469.208 154.697 462.687 155.312C456.429 154.782 451.893 153.392 447.625 148.625C443.243 142.909 442.39 138.104 443 131C444.413 125.477 448.016 121.452 452.562 118.125C458.384 116.22 464.595 115.711 470.414 117.914Z" fill="#fff"/>
<path d="M255 233C242.207 267.125 208.773 274.142 174 264C185.79 230.535 226.175 232.473 255 233Z" fill="#FFFF00"/>
</g>
<defs>
<clipPath id="clip0_3_281">
<rect width="556" height="424" fill="white"/>
</clipPath>
</defs>
</svg>
